<svg width="1106" height="437" viewBox="0 0 1106 437" fill="none" xmlns="http://www.w3.org/2000/svg">
<path d="M197.927 221.056C194.552 221.056 191.692 219.918 189.29 217.604C186.935 215.329 185.757 212.421 185.757 208.898C185.757 205.367 186.935 202.42 189.29 200.105C191.684 197.751 194.544 196.574 197.927 196.574C201.38 196.574 204.319 197.751 206.714 200.105C209.148 202.42 210.364 205.359 210.364 208.898C210.364 212.271 209.148 215.131 206.714 217.485C204.319 219.879 201.38 221.056 197.927 221.056ZM207.148 335.755C207.148 346.546 211.305 351.958 219.665 351.958C223.039 351.958 226.058 351.523 228.729 350.702V367.726C227.275 368.073 225.355 368.469 222.921 368.785C220.527 369.14 217.974 369.337 215.311 369.337C211.55 369.337 208.01 368.705 204.715 367.497C201.419 366.241 198.551 364.4 196.156 361.848C193.723 359.336 191.803 356.16 190.388 352.353C188.974 348.584 188.27 344.153 188.27 339.097V250.949H207.148V335.763V335.755ZM346.961 368.626H328.091V301.509C328.091 276.521 318.987 264.047 300.741 264.047C291.322 264.047 283.514 267.579 277.359 274.681C271.156 281.783 268.097 290.725 268.097 301.509V368.626H249.219V250.941H268.097V270.478H268.564C277.43 255.61 290.302 248.2 307.173 248.2C320.046 248.2 329.892 252.355 336.72 260.674C343.547 268.953 346.961 280.993 346.961 296.69V368.634V368.626ZM437.092 367.489C432.659 369.922 426.772 371.139 419.51 371.139C398.87 371.139 388.589 359.644 388.589 336.655V267.026H368.344V250.941H388.589V222.225L407.428 216.103V250.933H437.092V267.018H407.428V333.353C407.428 341.238 408.763 346.847 411.466 350.22C414.129 353.593 418.57 355.283 424.805 355.283C429.554 355.283 433.631 353.988 437.084 351.357V367.481L437.092 367.489ZM555.008 314.488H471.901C472.217 327.594 475.75 337.714 482.498 344.856C489.246 351.958 498.508 355.521 510.314 355.521C523.573 355.521 535.743 351.168 546.885 342.422V360.11C536.525 367.647 522.831 371.368 505.841 371.368C489.207 371.368 476.137 366.035 466.639 355.362C457.101 344.65 452.359 329.633 452.359 310.246C452.359 291.926 457.583 277.019 467.942 265.485C478.342 253.951 491.254 248.184 506.631 248.184C522.056 248.184 533.941 253.161 542.38 263.131C550.82 273.053 555.016 286.902 555.016 304.598V314.48L555.008 314.488ZM535.703 298.522C535.624 287.652 532.993 279.184 527.856 273.101C522.672 267.057 515.497 264.039 506.275 264.039C497.409 264.039 489.831 267.215 483.636 273.575C477.433 279.926 473.592 288.245 472.138 298.522H535.703ZM644.942 270.004C641.647 267.492 636.898 266.243 630.695 266.243C622.611 266.243 615.902 270.004 610.489 277.619C605.116 285.195 602.405 295.544 602.405 308.65V368.634H583.527V250.949H602.405V275.194H602.871C605.542 266.915 609.62 260.485 615.151 255.816C620.683 251.186 626.846 248.872 633.674 248.872C638.581 248.872 642.311 249.425 644.934 250.483V270.02L644.942 270.004ZM742.533 363.207C733.509 368.666 722.754 371.368 710.356 371.368C693.556 371.368 680.02 365.917 669.707 355.007C659.427 344.105 654.243 329.941 654.243 312.521C654.243 293.143 659.814 277.572 670.924 265.801C682.027 254.07 696.859 248.184 715.421 248.184C725.781 248.184 734.884 250.064 742.771 253.912V273.211C734.023 267.089 724.683 264.032 714.718 264.032C702.707 264.032 692.821 268.345 685.132 276.979C677.436 285.574 673.556 296.911 673.556 310.918C673.556 324.727 677.206 335.589 684.421 343.552C691.683 351.515 701.371 355.521 713.58 355.521C723.861 355.521 733.509 352.108 742.541 345.282V363.207H742.533ZM832.428 270.004C829.133 267.492 824.383 266.243 818.18 266.243C810.096 266.243 803.388 270.004 797.975 277.619C792.601 285.195 789.891 295.544 789.891 308.65V368.634H771.013V250.949H789.891V275.194H790.357C793.028 266.915 797.105 260.485 802.637 255.816C808.168 251.186 814.332 248.872 821.159 248.872C826.067 248.872 829.796 249.425 832.42 250.483V270.02L832.428 270.004ZM937.155 368.626H918.277V350.228H917.85C909.648 364.345 897.565 371.368 881.635 371.368C869.9 371.368 860.717 368.263 854.087 362.07C847.458 355.868 844.163 347.628 844.163 337.359C844.163 315.389 857.114 302.56 883.009 298.989L918.285 294.043C918.285 274.033 910.201 264.032 894.033 264.032C879.864 264.032 867.079 268.858 855.652 278.504V259.204C867.229 251.834 880.528 248.184 895.637 248.184C923.302 248.184 937.155 262.815 937.155 292.076V368.611V368.626ZM918.277 309.077L889.908 312.995C881.16 314.212 874.57 316.368 870.129 319.505C865.696 322.601 863.46 328.092 863.46 335.976C863.46 341.703 865.498 346.412 869.623 350.062C873.701 353.711 879.153 355.513 885.981 355.513C895.321 355.513 903.049 352.218 909.134 345.709C915.25 339.16 918.277 330.841 918.277 320.8V309.069V309.077ZM1030.86 210.928C1027.17 208.89 1023.01 207.831 1018.3 207.831C1005.15 207.831 998.562 216.15 998.562 232.779V250.941H1026.15V267.026H998.562V368.626H979.803V267.026H959.676V250.941H979.803V231.879C979.803 219.523 983.374 209.791 990.478 202.61C997.622 195.429 1006.53 191.866 1017.16 191.866C1022.93 191.866 1027.48 192.569 1030.86 193.943V210.928ZM1105.22 367.489C1100.78 369.922 1094.9 371.139 1087.64 371.139C1066.99 371.139 1056.71 359.644 1056.71 336.655V267.026H1036.47V250.941H1056.71V222.225L1075.55 216.103V250.933H1105.22V267.018H1075.55V333.353C1075.55 341.238 1076.89 346.847 1079.59 350.22C1082.25 353.593 1086.69 355.283 1092.93 355.283C1097.68 355.283 1101.76 353.988 1105.21 351.357V367.481L1105.22 367.489Z" fill="#96989A" stroke="#96989A" stroke-width="0.66624" stroke-miterlimit="2.61313"/>
<path fill-rule="evenodd" clip-rule="evenodd" d="M16.1267 0L97.1866 199.196L154.959 56.982C154.959 56.982 15.9055 0.537195 16.1267 0Z" fill="#FF6600"/>
<path fill-rule="evenodd" clip-rule="evenodd" d="M98.3894 200.303L0 32.8245L34.6667 45.8751C34.6667 45.8751 97.3858 199.892 98.3894 200.303Z" fill="#F74343"/>
<path fill-rule="evenodd" clip-rule="evenodd" d="M154.961 56.9904L51.166 309.78L233.911 205.896C233.911 205.896 155.379 55.9871 154.968 56.9904H154.961Z" fill="#ED1515"/>
<path fill-rule="evenodd" clip-rule="evenodd" d="M250.909 164.366L215.99 171.823L233.896 205.896C233.896 205.896 250.775 164.69 250.901 164.366H250.909Z" fill="#F74343"/>
<path fill-rule="evenodd" clip-rule="evenodd" d="M250.909 164.374L271.352 199.734L241.079 188.279C241.079 188.279 251.044 164.05 250.909 164.374Z" fill="#FF6600"/>
<path fill-rule="evenodd" clip-rule="evenodd" d="M97.2349 197.506L98.5072 312.498L36.7915 345.179C36.7915 345.179 96.7291 196.922 97.2349 197.506Z" fill="#D2D3D5"/>
<path fill-rule="evenodd" clip-rule="evenodd" d="M198.367 210.115C207.202 210.115 214.361 217.272 214.361 226.104C214.361 234.936 207.202 242.093 198.367 242.093C189.533 242.093 182.374 234.936 182.374 226.104C182.374 217.272 189.533 210.115 198.367 210.115Z" fill="#FEFEFE"/>
<path fill-rule="evenodd" clip-rule="evenodd" d="M198.365 214.87C204.576 214.87 209.61 219.903 209.61 226.112C209.61 232.321 204.576 237.354 198.365 237.354C192.154 237.354 187.12 232.321 187.12 226.112C187.12 219.903 192.154 214.87 198.365 214.87Z" fill="#96989A"/>
<path fill-rule="evenodd" clip-rule="evenodd" d="M16.1267 0L97.1866 199.196L154.959 56.982C154.959 56.982 15.9055 0.537195 16.1267 0Z" fill="#FF6600"/>
<path fill-rule="evenodd" clip-rule="evenodd" d="M98.3894 200.303L0 32.8245L34.6667 45.8751C34.6667 45.8751 97.3858 199.892 98.3894 200.303Z" fill="#F74343"/>
<path fill-rule="evenodd" clip-rule="evenodd" d="M154.961 56.9904L51.166 309.78L233.911 205.896C233.911 205.896 155.379 55.9871 154.968 56.9904H154.961Z" fill="#ED1515"/>
<path fill-rule="evenodd" clip-rule="evenodd" d="M250.909 164.366L215.99 171.823L233.896 205.896C233.896 205.896 250.775 164.69 250.901 164.366H250.909Z" fill="#F74343"/>
<path fill-rule="evenodd" clip-rule="evenodd" d="M250.909 164.374L271.352 199.734L241.079 188.279C241.079 188.279 251.044 164.05 250.909 164.374Z" fill="#FF6600"/>
<path fill-rule="evenodd" clip-rule="evenodd" d="M97.2349 197.506L98.5072 312.498L36.7915 345.179C36.7915 345.179 96.7291 196.922 97.2349 197.506Z" fill="#D2D3D5"/>
<path fill-rule="evenodd" clip-rule="evenodd" d="M198.367 210.115C207.202 210.115 214.361 217.272 214.361 226.104C214.361 234.936 207.202 242.093 198.367 242.093C189.533 242.093 182.374 234.936 182.374 226.104C182.374 217.272 189.533 210.115 198.367 210.115Z" fill="#FEFEFE"/>
<path fill-rule="evenodd" clip-rule="evenodd" d="M198.365 214.87C204.576 214.87 209.61 219.903 209.61 226.112C209.61 232.321 204.576 237.354 198.365 237.354C192.154 237.354 187.12 232.321 187.12 226.112C187.12 219.903 192.154 214.87 198.365 214.87Z" fill="#96989A"/>
<path d="M538.94 411.839C540.094 411.839 540.978 412.281 541.587 413.15C542.195 413.995 542.504 415.236 542.504 416.863V426.161C542.504 427.884 542.931 429.187 543.768 430.096C544.503 430.909 545.443 431.312 546.613 431.312H549.9C550.477 431.312 550.769 430.901 550.769 430.08C550.769 429.258 550.446 428.847 549.805 428.847H547.672C546.708 428.847 546.052 428.586 545.704 428.065C545.38 427.599 545.23 426.817 545.23 425.703V416.16C545.23 414.588 544.787 413.356 543.918 412.455C543.199 411.673 542.133 411.112 540.734 410.757V410.669C542.101 410.322 543.168 409.737 543.918 408.932C544.787 407.968 545.23 406.72 545.23 405.179V395.715C545.23 394.609 545.388 393.827 545.712 393.361C546.083 392.808 546.739 392.539 547.672 392.539H549.94C550.525 392.539 550.809 392.128 550.809 391.307C550.777 390.485 550.469 390.074 549.892 390.074H546.605C545.491 390.074 544.55 390.548 543.76 391.512C542.922 392.531 542.496 393.772 542.496 395.257V404.452C542.496 406.08 542.188 407.312 541.579 408.157C540.979 409.003 540.086 409.422 538.932 409.422H537.146C536.482 409.422 536.15 409.817 536.15 410.607C536.15 411.428 536.482 411.839 537.146 411.839H538.932H538.94ZM1102.35 411.839H1104.13C1104.76 411.839 1105.08 411.428 1105.08 410.607C1105.08 409.817 1104.76 409.422 1104.13 409.422H1102.35C1101.16 409.422 1100.26 408.995 1099.66 408.157C1099.07 407.32 1098.79 406.08 1098.79 404.452V395.257C1098.79 393.772 1098.36 392.531 1097.53 391.512C1096.7 390.548 1095.76 390.074 1094.68 390.074H1091.39C1090.78 390.074 1090.46 390.485 1090.44 391.307C1090.44 392.128 1090.75 392.539 1091.35 392.539H1093.62C1094.52 392.539 1095.16 392.816 1095.54 393.361C1095.89 393.827 1096.06 394.609 1096.06 395.715V405.179C1096.06 406.72 1096.49 407.968 1097.33 408.932C1098.08 409.745 1099.16 410.322 1100.55 410.669V410.757C1099.13 411.104 1098.06 411.673 1097.33 412.455C1096.49 413.356 1096.06 414.588 1096.06 416.16V425.703C1096.06 426.817 1095.89 427.591 1095.54 428.065C1095.19 428.586 1094.55 428.847 1093.62 428.847H1091.49C1090.82 428.847 1090.48 429.258 1090.48 430.08C1090.48 430.901 1090.79 431.312 1091.4 431.312H1094.69C1095.83 431.312 1096.77 430.901 1097.53 430.096C1098.37 429.195 1098.8 427.884 1098.8 426.161V416.863C1098.8 415.228 1099.09 413.987 1099.67 413.15C1100.27 412.281 1101.17 411.839 1102.35 411.839H1102.35ZM558.727 425.451V421.129C559.225 421.571 559.825 421.959 560.513 422.306C561.2 422.654 561.935 422.954 562.694 423.191C563.46 423.428 564.227 423.618 564.993 423.744C565.768 423.87 566.487 423.933 567.127 423.933C569.379 423.933 571.062 423.515 572.184 422.677C573.298 421.84 573.851 420.639 573.851 419.075C573.851 418.23 573.662 417.495 573.29 416.871C572.919 416.239 572.405 415.67 571.757 415.157C571.102 414.635 570.327 414.145 569.434 413.664C568.533 413.197 567.577 412.7 566.534 412.171C565.444 411.618 564.424 411.057 563.476 410.488C562.528 409.919 561.714 409.295 561.01 408.616C560.307 407.928 559.77 407.154 559.367 406.293C558.964 405.432 558.766 404.421 558.766 403.252C558.766 401.822 559.075 400.589 559.707 399.531C560.339 398.472 561.161 397.611 562.172 396.924C563.192 396.236 564.353 395.731 565.657 395.399C566.953 395.059 568.288 394.893 569.64 394.893C572.721 394.893 574.973 395.265 576.388 396.008V400.131C574.539 398.851 572.16 398.212 569.276 398.212C568.47 398.212 567.68 398.29 566.874 398.456C566.076 398.63 565.365 398.899 564.74 399.278C564.116 399.657 563.61 400.147 563.215 400.747C562.82 401.34 562.631 402.067 562.631 402.928C562.631 403.726 562.781 404.421 563.081 404.998C563.381 405.582 563.816 406.111 564.4 406.593C564.977 407.067 565.696 407.541 566.526 407.984C567.364 408.442 568.328 408.932 569.418 409.469C570.548 410.022 571.599 410.607 572.611 411.215C573.614 411.831 574.492 412.502 575.242 413.245C576.001 413.988 576.601 414.809 577.044 415.71C577.486 416.61 577.708 417.645 577.708 418.807C577.708 420.347 577.408 421.658 576.807 422.725C576.206 423.799 575.384 424.668 574.365 425.332C573.338 426.003 572.153 426.485 570.817 426.786C569.474 427.086 568.067 427.236 566.582 427.236C566.092 427.236 565.483 427.196 564.748 427.117C564.029 427.038 563.278 426.928 562.52 426.77C561.769 426.62 561.058 426.43 560.378 426.201C559.699 425.98 559.153 425.727 558.742 425.451H558.727ZM585.049 398.709C584.409 398.709 583.863 398.488 583.413 398.053C582.963 397.619 582.741 397.074 582.741 396.403C582.741 395.731 582.963 395.17 583.413 394.735C583.863 394.293 584.409 394.064 585.049 394.064C585.705 394.064 586.266 394.285 586.716 394.735C587.175 395.178 587.412 395.731 587.412 396.403C587.412 397.042 587.175 397.587 586.716 398.03C586.266 398.48 585.705 398.709 585.049 398.709ZM586.795 420.481C586.795 422.528 587.585 423.554 589.174 423.554C589.814 423.554 590.391 423.467 590.897 423.317V426.548C590.62 426.612 590.256 426.691 589.798 426.754C589.348 426.817 588.858 426.857 588.352 426.857C587.641 426.857 586.969 426.738 586.345 426.509C585.72 426.272 585.175 425.917 584.717 425.435C584.259 424.961 583.887 424.352 583.619 423.633C583.35 422.922 583.216 422.077 583.216 421.113V404.381H586.795V420.481ZM626.511 426.722H622.94V413.893C622.94 411.42 622.552 409.635 621.794 408.529C621.027 407.423 619.747 406.87 617.946 406.87C616.42 406.87 615.116 407.573 614.05 408.963C612.983 410.362 612.438 412.036 612.438 413.98V426.722H608.866V413.458C608.866 409.066 607.167 406.87 603.777 406.87C602.204 406.87 600.916 407.526 599.897 408.845C598.877 410.164 598.372 411.871 598.372 413.98V426.722H594.784V404.381H598.372V407.92H598.459C600.039 405.211 602.354 403.86 605.397 403.86C606.922 403.86 608.257 404.286 609.387 405.132C610.525 405.977 611.3 407.099 611.726 408.482C613.378 405.401 615.851 403.86 619.147 403.86C624.062 403.86 626.519 406.893 626.519 412.953V426.722H626.511ZM636.942 423.491H636.855V437H633.267V404.389H636.855V408.315H636.942C638.697 405.353 641.273 403.868 644.663 403.868C647.539 403.868 649.783 404.863 651.403 406.87C653.015 408.869 653.821 411.547 653.821 414.904C653.821 418.641 652.912 421.635 651.095 423.886C649.277 426.13 646.788 427.252 643.635 427.252C640.735 427.252 638.515 425.995 636.942 423.499V423.491ZM636.855 414.477V417.598C636.855 419.446 637.456 421.019 638.657 422.306C639.858 423.594 641.375 424.234 643.224 424.234C645.389 424.234 647.088 423.412 648.313 421.745C649.546 420.086 650.163 417.78 650.163 414.825C650.163 412.337 649.593 410.393 648.432 408.979C647.286 407.573 645.729 406.87 643.769 406.87C641.683 406.87 640.016 407.589 638.751 409.034C637.487 410.488 636.855 412.297 636.855 414.477ZM662.885 420.481C662.885 422.528 663.675 423.554 665.263 423.554C665.903 423.554 666.48 423.467 666.986 423.317V426.548C666.71 426.612 666.346 426.691 665.888 426.754C665.437 426.817 664.947 426.857 664.442 426.857C663.73 426.857 663.059 426.738 662.434 426.509C661.81 426.272 661.265 425.917 660.806 425.435C660.348 424.961 659.977 424.352 659.708 423.633C659.439 422.922 659.305 422.077 659.305 421.113V393.653H662.885V420.481ZM688.827 416.444H673.055C673.11 418.933 673.79 420.853 675.062 422.211C676.342 423.562 678.104 424.234 680.348 424.234C682.869 424.234 685.177 423.412 687.287 421.745V425.103C685.319 426.532 682.719 427.236 679.495 427.236C676.334 427.236 673.853 426.224 672.051 424.194C670.242 422.164 669.341 419.304 669.341 415.631C669.341 412.155 670.329 409.326 672.296 407.13C674.272 404.942 676.721 403.844 679.645 403.844C682.569 403.844 684.829 404.792 686.433 406.68C688.029 408.56 688.827 411.191 688.827 414.548V416.421V416.444ZM685.169 413.419C685.153 411.357 684.655 409.745 683.675 408.592C682.695 407.446 681.328 406.87 679.574 406.87C677.891 406.87 676.453 407.47 675.275 408.679C674.098 409.888 673.371 411.468 673.094 413.419H685.161H685.169ZM722.886 426.722H719.219V395.447H722.886V426.722ZM749.184 426.722H745.597V413.98C745.597 409.24 743.866 406.87 740.405 406.87C738.619 406.87 737.133 407.541 735.964 408.884C734.786 410.235 734.209 411.934 734.209 413.98V426.722H730.622V404.381H734.209V408.087H734.296C735.979 405.266 738.421 403.86 741.622 403.86C744.063 403.86 745.936 404.65 747.232 406.23C748.528 407.802 749.176 410.085 749.176 413.063V426.722H749.184ZM774.479 426.722H770.891V413.98C770.891 409.24 769.161 406.87 765.699 406.87C763.914 406.87 762.428 407.541 761.258 408.884C760.081 410.235 759.504 411.934 759.504 413.98V426.722H755.916V404.381H759.504V408.087H759.591C761.274 405.266 763.716 403.86 766.916 403.86C769.358 403.86 771.231 404.65 772.527 406.23C773.823 407.802 774.471 410.085 774.471 413.063V426.722H774.479ZM790.56 427.244C787.256 427.244 784.625 426.201 782.649 424.115C780.682 422.03 779.694 419.257 779.694 415.812C779.694 412.06 780.721 409.129 782.768 407.02C784.822 404.911 787.596 403.86 791.089 403.86C794.416 403.86 797.016 404.879 798.888 406.933C800.761 408.979 801.686 411.823 801.686 415.457C801.686 419.028 800.682 421.88 798.675 424.021C796.652 426.169 793.949 427.236 790.567 427.236L790.56 427.244ZM790.82 406.87C788.529 406.87 786.711 407.652 785.368 409.216C784.024 410.78 783.36 412.929 783.36 415.686C783.36 418.332 784.032 420.41 785.392 421.943C786.751 423.467 788.56 424.234 790.82 424.234C793.136 424.234 794.921 423.483 796.162 421.982C797.403 420.489 798.019 418.356 798.019 415.591C798.019 412.803 797.403 410.646 796.162 409.137C794.921 407.612 793.136 406.87 790.82 406.87ZM824.973 404.381L816.067 426.722H812.559L804.088 404.381H808.015L813.689 420.616C814.116 421.809 814.377 422.843 814.479 423.736H814.558C814.709 422.614 814.937 421.603 815.261 420.695L821.196 404.381H824.973ZM844.002 426.722H840.414V423.231H840.335C838.778 425.909 836.487 427.244 833.46 427.244C831.232 427.244 829.493 426.651 828.237 425.474C826.98 424.297 826.348 422.733 826.348 420.782C826.348 416.61 828.806 414.177 833.721 413.498L840.414 412.558C840.414 408.758 838.881 406.862 835.815 406.862C833.128 406.862 830.694 407.778 828.529 409.611V405.945C830.726 404.547 833.254 403.852 836.123 403.852C841.378 403.852 844.002 406.633 844.002 412.187V426.714V426.722ZM840.414 415.417L835.033 416.16C833.373 416.397 832.117 416.8 831.279 417.4C830.434 417.985 830.015 419.028 830.015 420.529C830.015 421.619 830.402 422.511 831.184 423.207C831.959 423.894 832.994 424.242 834.29 424.242C836.06 424.242 837.53 423.617 838.683 422.385C839.845 421.145 840.422 419.565 840.422 417.661V415.433L840.414 415.417ZM861.11 426.509C860.264 426.967 859.15 427.196 857.775 427.196C853.856 427.196 851.904 425.016 851.904 420.655V407.438H848.063V404.381H851.904V398.93L855.475 397.769V404.381H861.11V407.438H855.475V420.031C855.475 421.524 855.729 422.591 856.242 423.231C856.748 423.87 857.585 424.194 858.771 424.194C859.671 424.194 860.446 423.949 861.102 423.452V426.509H861.11ZM867.479 398.709C866.839 398.709 866.294 398.488 865.843 398.053C865.393 397.619 865.171 397.074 865.171 396.403C865.171 395.731 865.393 395.17 865.843 394.735C866.294 394.293 866.839 394.064 867.479 394.064C868.135 394.064 868.696 394.285 869.146 394.735C869.604 395.178 869.842 395.731 869.842 396.403C869.842 397.042 869.604 397.587 869.146 398.03C868.696 398.48 868.135 398.709 867.479 398.709ZM869.225 420.481C869.225 422.528 870.016 423.554 871.604 423.554C872.244 423.554 872.821 423.467 873.326 423.317V426.548C873.05 426.612 872.686 426.691 872.228 426.754C871.778 426.817 871.288 426.857 870.782 426.857C870.071 426.857 869.399 426.738 868.775 426.509C868.151 426.272 867.605 425.917 867.147 425.435C866.689 424.961 866.317 424.352 866.048 423.633C865.78 422.922 865.646 422.077 865.646 421.113V404.381H869.225V420.481ZM894.78 404.381L885.875 426.722H882.366L873.895 404.381H877.823L883.496 420.616C883.923 421.809 884.184 422.843 884.287 423.736H884.366C884.516 422.614 884.745 421.603 885.069 420.695L891.003 404.381H894.78ZM916.306 416.444H900.533C900.589 418.933 901.268 420.853 902.541 422.211C903.821 423.562 905.583 424.234 907.827 424.234C910.348 424.234 912.655 423.412 914.765 421.745V425.103C912.797 426.532 910.198 427.236 906.974 427.236C903.813 427.236 901.332 426.224 899.53 424.194C897.72 422.164 896.819 419.304 896.819 415.631C896.819 412.155 897.807 409.326 899.775 407.13C901.75 404.942 904.2 403.844 907.124 403.844C910.047 403.844 912.308 404.792 913.912 406.68C915.508 408.56 916.306 411.191 916.306 414.548V416.421V416.444ZM912.647 413.419C912.632 411.357 912.134 409.745 911.154 408.592C910.174 407.446 908.807 406.87 907.053 406.87C905.37 406.87 903.931 407.47 902.754 408.679C901.577 409.888 900.849 411.468 900.573 413.419H912.639H912.647ZM969.59 414.074C969.59 422.851 965.623 427.244 957.697 427.244C950.103 427.244 946.311 423.017 946.311 414.572V395.447H949.977V414.335C949.977 420.75 952.688 423.957 958.1 423.957C963.324 423.957 965.931 420.86 965.931 414.667V395.447H969.598V414.074H969.59ZM995.47 426.722H991.882V413.98C991.882 409.24 990.151 406.87 986.69 406.87C984.904 406.87 983.419 407.541 982.249 408.884C981.072 410.235 980.495 411.934 980.495 413.98V426.722H976.907V404.381H980.495V408.087H980.582C982.265 405.266 984.707 403.86 987.907 403.86C990.349 403.86 992.222 404.65 993.518 406.23C994.814 407.802 995.462 410.085 995.462 413.063V426.722H995.47ZM1003.81 398.709C1003.17 398.709 1002.62 398.488 1002.17 398.053C1001.72 397.619 1001.5 397.074 1001.5 396.403C1001.5 395.731 1001.72 395.17 1002.17 394.735C1002.62 394.293 1003.17 394.064 1003.81 394.064C1004.46 394.064 1005.02 394.285 1005.47 394.735C1005.93 395.178 1006.17 395.731 1006.17 396.403C1006.17 397.042 1005.93 397.587 1005.47 398.03C1005.02 398.48 1004.46 398.709 1003.81 398.709ZM1005.55 420.481C1005.55 422.528 1006.34 423.554 1007.93 423.554C1008.57 423.554 1009.15 423.467 1009.65 423.317V426.548C1009.38 426.612 1009.01 426.691 1008.56 426.754C1008.11 426.817 1007.62 426.857 1007.11 426.857C1006.4 426.857 1005.73 426.738 1005.1 426.509C1004.48 426.272 1003.93 425.917 1003.47 425.435C1003.02 424.961 1002.64 424.352 1002.38 423.633C1002.11 422.922 1001.97 422.077 1001.97 421.113V404.381H1005.55V420.481ZM1024.58 396.789C1023.88 396.402 1023.09 396.205 1022.19 396.205C1019.7 396.205 1018.45 397.785 1018.45 400.945V404.389H1023.69V407.447H1018.45V426.73H1014.89V407.447H1011.07V404.389H1014.89V400.771C1014.89 398.425 1015.56 396.576 1016.91 395.218C1018.27 393.851 1019.96 393.179 1021.97 393.179C1023.07 393.179 1023.93 393.314 1024.57 393.574V396.797L1024.58 396.789ZM1029.42 398.709C1028.78 398.709 1028.24 398.488 1027.79 398.053C1027.35 397.619 1027.12 397.074 1027.12 396.403C1027.12 395.731 1027.34 395.17 1027.79 394.735C1028.24 394.293 1028.78 394.064 1029.42 394.064C1030.08 394.064 1030.64 394.285 1031.09 394.735C1031.56 395.178 1031.79 395.731 1031.79 396.403C1031.79 397.042 1031.56 397.587 1031.09 398.03C1030.64 398.48 1030.08 398.709 1029.42 398.709ZM1031.17 420.481C1031.17 422.528 1031.96 423.554 1033.55 423.554C1034.19 423.554 1034.77 423.467 1035.27 423.317V426.548C1035 426.612 1034.63 426.691 1034.17 426.754C1033.72 426.817 1033.23 426.857 1032.73 426.857C1032.02 426.857 1031.35 426.738 1030.72 426.509C1030.1 426.272 1029.55 425.917 1029.09 425.435C1028.63 424.961 1028.26 424.352 1027.99 423.633C1027.73 422.922 1027.59 422.077 1027.59 421.113V404.381H1031.17V420.481ZM1057.11 416.444H1041.33C1041.39 418.933 1042.07 420.853 1043.34 422.211C1044.62 423.562 1046.38 424.234 1048.63 424.234C1051.15 424.234 1053.46 423.412 1055.57 421.745V425.103C1053.6 426.532 1051 427.236 1047.77 427.236C1044.61 427.236 1042.13 426.224 1040.33 424.194C1038.52 422.164 1037.62 419.304 1037.62 415.631C1037.62 412.155 1038.61 409.326 1040.57 407.13C1042.55 404.942 1045 403.844 1047.92 403.844C1050.85 403.844 1053.11 404.792 1054.71 406.68C1056.31 408.56 1057.11 411.191 1057.11 414.548V416.421V416.444ZM1053.45 413.419C1053.43 411.357 1052.93 409.745 1051.95 408.592C1050.97 407.446 1049.61 406.87 1047.85 406.87C1046.17 406.87 1044.73 407.47 1043.55 408.679C1042.38 409.888 1041.65 411.468 1041.37 413.419H1053.44H1053.45ZM1081.6 426.722H1078.02V422.922H1077.94C1076.28 425.806 1073.71 427.244 1070.25 427.244C1067.45 427.244 1065.2 426.248 1063.52 424.242C1061.84 422.243 1061 419.518 1061 416.073C1061 412.376 1061.93 409.421 1063.79 407.194C1065.66 404.966 1068.14 403.86 1071.24 403.86C1074.3 403.86 1076.54 405.069 1077.94 407.478H1078.02V393.653H1081.6V426.722ZM1078.02 416.626V413.324C1078.02 411.523 1077.41 409.998 1076.23 408.742C1075.04 407.494 1073.53 406.87 1071.69 406.87C1069.51 406.87 1067.79 407.668 1066.54 409.263C1065.29 410.867 1064.67 413.079 1064.67 415.899C1064.67 418.475 1065.27 420.497 1066.47 421.998C1067.67 423.491 1069.28 424.234 1071.31 424.234C1073.3 424.234 1074.92 423.515 1076.17 422.077C1077.41 420.639 1078.02 418.814 1078.02 416.626H1078.02Z" fill="#989C9C"/>
<path fill-rule="evenodd" clip-rule="evenodd" d="M702.358 409.422C704.634 409.422 706.475 411.262 706.475 413.529C706.475 415.797 704.634 417.637 702.358 417.637C700.09 417.637 698.249 415.797 698.249 413.529C698.249 411.262 700.09 409.422 702.358 409.422Z" fill="#FF6600"/>
<path fill-rule="evenodd" clip-rule="evenodd" d="M930.896 409.422C933.172 409.422 935.013 411.262 935.013 413.529C935.013 415.797 933.172 417.637 930.896 417.637C928.62 417.637 926.779 415.797 926.779 413.529C926.779 411.262 928.62 409.422 930.896 409.422Z" fill="#FF6600"/>
<path fill-rule="evenodd" clip-rule="evenodd" d="M702.358 409.422C704.634 409.422 706.475 411.262 706.475 413.529C706.475 415.797 704.634 417.637 702.358 417.637C700.09 417.637 698.249 415.797 698.249 413.529C698.249 411.262 700.09 409.422 702.358 409.422Z" fill="#FF6600"/>
<path fill-rule="evenodd" clip-rule="evenodd" d="M930.896 409.422C933.172 409.422 935.013 411.262 935.013 413.529C935.013 415.797 933.172 417.637 930.896 417.637C928.62 417.637 926.779 415.797 926.779 413.529C926.779 411.262 928.62 409.422 930.896 409.422Z" fill="#FF6600"/>
</svg>
