<svg width="64" height="64" viewBox="0 0 64 64" fill="none" xmlns="http://www.w3.org/2000/svg">
<rect width="64" height="64" rx="12" fill="white"/>
<path d="M21.3333 34.6667L16.935 40.1646C16.5884 40.5978 16.4152 40.8144 16.292 41.0555C16.1826 41.2695 16.1028 41.4973 16.0544 41.7326C16 41.9979 16 42.2753 16 42.83V56L26.6667 42.6667M42.6667 34.6667L47.065 40.1646C47.4116 40.5978 47.5848 40.8144 47.708 41.0555C47.8174 41.2695 47.8972 41.4973 47.9456 41.7326C48 41.9979 48 42.2753 48 42.83V56L37.3333 42.6667M32 34.6667V53.3333M21.3333 21.3333H42.6667M32 8L22.4111 18.7876C22.0124 19.2361 21.813 19.4603 21.6709 19.7152C21.5449 19.9413 21.4524 20.1845 21.3964 20.4371C21.3333 20.7221 21.3333 21.0221 21.3333 21.6222V32C21.3333 35.7337 21.3333 37.6005 22.06 39.0266C22.6991 40.281 23.719 41.3009 24.9734 41.94C26.3995 42.6667 28.2663 42.6667 32 42.6667C35.7337 42.6667 37.6005 42.6667 39.0266 41.94C40.281 41.3009 41.3009 40.281 41.94 39.0266C42.6667 37.6005 42.6667 35.7337 42.6667 32V21.6222C42.6667 21.0221 42.6667 20.7221 42.6036 20.4371C42.5476 20.1845 42.4551 19.9413 42.3291 19.7152C42.187 19.4603 41.9876 19.2361 41.5889 18.7876L32 8Z" stroke="url(#paint0_linear_9703_726)" stroke-width="3" stroke-linecap="round" stroke-linejoin="round"/>
<defs>
<linearGradient id="paint0_linear_9703_726" x1="48" y1="32" x2="16" y2="32" gradientUnits="userSpaceOnUse">
<stop stop-color="#D12C09"/>
<stop offset="1" stop-color="#F25C05"/>
</linearGradient>
</defs>
</svg>
