<svg width="32" height="32" viewBox="0 0 32 32" fill="none" xmlns="http://www.w3.org/2000/svg">
<path d="M25.3363 28V20M28.0407 22.6667L25.374 20L22.7074 22.6667M17.3337 4H10.9337C9.44019 4 8.69345 4 8.12302 4.29065C7.62125 4.54631 7.2133 4.95426 6.95764 5.45603C6.66699 6.02646 6.66699 6.77319 6.66699 8.26667V23.7333C6.66699 25.2268 6.66699 25.9735 6.95764 26.544C7.2133 27.0457 7.62125 27.4537 8.12302 27.7094C8.69345 28 9.44019 28 10.9337 28H20.0003M17.3337 4L25.3337 12M17.3337 4V9.86667C17.3337 10.6134 17.3337 10.9868 17.479 11.272C17.6068 11.5229 17.8108 11.7268 18.0617 11.8547C18.3469 12 18.7203 12 19.467 12H25.3337M25.3337 12V14.6667M12.0003 22.6667H17.3337M12.0003 17.3333H20.0003M12.0003 12H13.3337" stroke="url(#paint0_linear_9210_2438)" stroke-width="2" stroke-linecap="round" stroke-linejoin="round"/>
<defs>
<linearGradient id="paint0_linear_9210_2438" x1="28.0407" y1="16" x2="6.66699" y2="16" gradientUnits="userSpaceOnUse">
<stop stop-color="#D12C09"/>
<stop offset="1" stop-color="#F25C05"/>
</linearGradient>
</defs>
</svg>
