<svg width="32" height="32" viewBox="0 0 32 32" fill="none" xmlns="http://www.w3.org/2000/svg">
<path d="M9.33333 28H22.6667M4 17.3333H28M13.3333 22.6667L12 28M18.6667 22.6667L20 28M8.26667 22.6667H23.7333C25.2268 22.6667 25.9735 22.6667 26.544 22.376C27.0457 22.1204 27.4537 21.7124 27.7094 21.2106C28 20.6402 28 19.8935 28 18.4V8.26667C28 6.77319 28 6.02646 27.7094 5.45603C27.4537 4.95426 27.0457 4.54631 26.544 4.29065C25.9735 4 25.2268 4 23.7333 4H8.26667C6.77319 4 6.02646 4 5.45603 4.29065C4.95426 4.54631 4.54631 4.95426 4.29065 5.45603C4 6.02646 4 6.77319 4 8.26667V18.4C4 19.8935 4 20.6402 4.29065 21.2106C4.54631 21.7124 4.95426 22.1204 5.45603 22.376C6.02646 22.6667 6.77319 22.6667 8.26667 22.6667Z" stroke="url(#paint0_linear_9335_549)" stroke-width="2" stroke-linecap="round" stroke-linejoin="round"/>
<defs>
<linearGradient id="paint0_linear_9335_549" x1="28" y1="16" x2="4" y2="16" gradientUnits="userSpaceOnUse">
<stop stop-color="#D12C09"/>
<stop offset="1" stop-color="#F25C05"/>
</linearGradient>
</defs>
</svg>
